<svg
        xmlns="http://www.w3.org/2000/svg"
        xmlns:xlink="http://www.w3.org/1999/xlink"
        width="25px" height="25px">
    <path fill-rule="evenodd"  fill="rgb(78, 83, 88)"
          d="M23.291,25.000 L1.709,25.000 C0.767,25.000 -0.000,24.233 -0.000,23.291 L-0.000,1.709 C-0.000,0.766 0.767,-0.000 1.709,-0.000 L23.291,-0.000 C24.233,-0.000 25.000,0.766 25.000,1.709 L25.000,23.291 C25.000,24.233 24.233,25.000 23.291,25.000 ZM23.535,1.709 C23.535,1.574 23.426,1.465 23.291,1.465 L1.709,1.465 C1.574,1.465 1.465,1.574 1.465,1.709 L1.465,23.291 C1.465,23.426 1.574,23.535 1.709,23.535 L23.291,23.535 C23.426,23.535 23.535,23.426 23.535,23.291 L23.535,1.709 ZM20.654,21.875 L4.346,21.875 C3.673,21.875 3.125,21.327 3.125,20.654 L3.125,4.346 C3.125,3.673 3.673,3.125 4.346,3.125 L20.654,3.125 C21.327,3.125 21.875,3.673 21.875,4.346 L21.875,20.654 C21.875,21.327 21.327,21.875 20.654,21.875 ZM20.410,4.590 L4.590,4.590 L4.590,13.907 L8.599,10.854 C8.854,10.659 9.207,10.654 9.468,10.840 L15.204,14.925 L17.838,13.055 C18.075,12.887 18.390,12.875 18.639,13.025 L20.410,14.090 L20.410,4.590 ZM20.410,15.799 L18.295,14.527 L15.628,16.421 C15.501,16.511 15.352,16.556 15.203,16.556 C15.055,16.556 14.906,16.511 14.779,16.421 L9.057,12.346 L4.590,15.748 L4.590,20.410 L20.410,20.410 L20.410,15.799 ZM16.504,11.377 C14.915,11.377 13.623,10.084 13.623,8.496 C13.623,6.908 14.915,5.615 16.504,5.615 C18.092,5.615 19.385,6.908 19.385,8.496 C19.385,10.084 18.092,11.377 16.504,11.377 ZM16.504,7.080 C15.723,7.080 15.088,7.715 15.088,8.496 C15.088,9.277 15.723,9.912 16.504,9.912 C17.284,9.912 17.920,9.277 17.920,8.496 C17.920,7.715 17.284,7.080 16.504,7.080 Z"/>
</svg>