<svg
        xmlns="http://www.w3.org/2000/svg"
        xmlns:xlink="http://www.w3.org/1999/xlink"
        width="27px" height="27px">
    <path fill-rule="evenodd"  fill="rgb(255, 255, 255)"
          d="M13.500,21.748 C7.432,21.748 2.496,16.870 2.496,10.874 C2.496,4.878 7.432,-0.000 13.500,-0.000 C19.568,-0.000 24.504,4.878 24.504,10.874 C24.504,16.870 19.568,21.748 13.500,21.748 ZM18.080,6.798 L11.538,13.262 L8.920,10.675 L7.781,11.800 L11.538,15.513 L19.219,7.923 L18.080,6.798 ZM8.962,22.504 L5.843,27.000 L4.925,22.133 L-0.000,23.041 L3.331,18.239 C4.748,20.144 6.698,21.638 8.962,22.504 ZM23.669,18.239 L27.000,23.041 L22.075,22.133 L21.157,27.000 L18.037,22.504 C20.302,21.638 22.252,20.144 23.669,18.239 Z"/>
</svg>