<svg
        xmlns="http://www.w3.org/2000/svg"
        xmlns:xlink="http://www.w3.org/1999/xlink"
        width="24px" height="24px">
    <path fill-rule="evenodd"  fill="rgb(37, 202, 68)"
          d="M11.814,23.805 C9.963,23.777 8.215,23.333 6.658,22.563 L0.598,23.988 C0.265,24.066 -0.036,23.775 0.033,23.443 L1.307,17.303 C0.477,15.689 0.007,13.863 0.001,11.928 C-0.019,5.576 5.024,0.292 11.414,-0.011 C18.437,-0.343 24.213,5.323 23.995,12.272 C23.792,18.755 18.346,23.905 11.814,23.805 ZM18.645,5.294 C16.870,3.532 14.511,2.561 12.001,2.561 C9.514,2.561 7.116,3.547 5.357,5.294 C3.582,7.056 2.605,9.399 2.605,11.891 C2.605,13.384 2.948,14.809 3.626,16.127 L4.042,16.935 L3.260,20.705 L6.975,19.831 L7.819,20.248 C9.124,20.894 10.531,21.221 12.001,21.221 C14.511,21.221 16.870,20.251 18.645,18.489 C20.404,16.742 21.397,14.361 21.397,11.891 C21.397,9.399 20.420,7.056 18.645,5.294 ZM16.238,17.564 C14.647,17.947 12.203,17.573 9.152,14.745 C6.511,12.298 5.812,10.259 5.977,8.642 C6.071,7.725 6.841,6.897 7.489,6.352 C7.932,5.981 8.609,6.134 8.843,6.660 L9.821,8.856 C9.949,9.145 9.908,9.480 9.714,9.730 L9.218,10.368 C9.008,10.636 8.980,11.005 9.151,11.299 C9.741,12.321 12.054,14.363 13.154,14.805 C13.471,14.932 13.835,14.854 14.075,14.612 L14.643,14.037 C14.866,13.812 15.195,13.725 15.500,13.813 L17.825,14.475 C18.382,14.634 18.627,15.279 18.316,15.765 C17.861,16.477 17.140,17.347 16.238,17.564 Z"/>
</svg>